<?xml version="1.0" encoding="UTF-8" standalone="no"?>
<!-- Created with Inkscape (http://www.inkscape.org/) -->

<svg
   xmlns:dc="http://purl.org/dc/elements/1.1/"
   xmlns:cc="http://creativecommons.org/ns#"
   xmlns:rdf="http://www.w3.org/1999/02/22-rdf-syntax-ns#"
   xmlns:svg="http://www.w3.org/2000/svg"
   xmlns="http://www.w3.org/2000/svg"
   xmlns:sodipodi="http://sodipodi.sourceforge.net/DTD/sodipodi-0.dtd"
   xmlns:inkscape="http://www.inkscape.org/namespaces/inkscape"
   width="120mm"
   height="200mm"
   id="Angled Move"
   version="1.1"
   inkscape:version="0.48.1 r9760"
   sodipodi:docname="angledMove.svg">
  <defs
     id="defs3162" />
  <sodipodi:namedview
     id="base"
     pagecolor="#ffffff"
     bordercolor="#666666"
     borderopacity="1.0"
     inkscape:pageopacity="0.0"
     inkscape:pageshadow="2"
     inkscape:zoom="0.7"
     inkscape:cx="89.487881"
     inkscape:cy="359.97516"
     inkscape:document-units="px"
     inkscape:current-layer="Angled Move"
     showgrid="false"
     inkscape:window-width="1280"
     inkscape:window-height="776"
     inkscape:window-x="0"
     inkscape:window-y="24"
     inkscape:window-maximized="1" />
  <metadata
     id="metadata3165">
    <rdf:RDF>
      <cc:Work
         rdf:about="">
        <dc:format>image/svg+xml</dc:format>
        <dc:type
           rdf:resource="http://purl.org/dc/dcmitype/StillImage" />
        <dc:title></dc:title>
      </cc:Work>
    </rdf:RDF>
  </metadata>
  <g
     inkscape:label="Calque 1"
     inkscape:groupmode="layer"
     id="layer1" />
  <path
     style="fill:#808080;fill-opacity:1;stroke:none"
     d="m 348.83278,244.69345 c -19.35086,-13.55615 -31.74487,-35.20212 -53.35109,-46.04117 -19.58619,-12.25449 -38.30727,-26.62343 -58.87723,-36.45851 -12.24739,-5.99763 -29.64997,5.79319 -18.2031,17.55383 7.18075,13.67446 14.36154,27.34903 21.54229,41.02355 17.4863,10.77235 38.25243,15.54213 54.04538,29.32497 15.64024,10.45717 26.48,27.70667 47.39591,23.75027 14.46894,-1.01242 1.32749,-20.69803 7.44749,-29.15294 z"
     id="rect3975-1-0-1-7"
     inkscape:connector-curvature="0" />
  <path
     d="m 93.58499,233.90355 c 8.91313,-25.8744 -1.40517,-51.38096 7.95198,-77.10124 17.21268,-17.16042 40.31767,-26.16673 60.48243,-36.27613 15.30176,-14.18023 2.43621,-27.788863 2.36135,-55.017001 -0.0745,-27.228082 41.356,-41.219075 55.05218,-16.093577 5.93333,31.772566 5.32406,21.641044 0.45974,52.943468 -12.25285,27.58325 9.57549,39.52262 22.88522,55.1938 6.5267,17.40522 6.26572,34.30472 7.05133,53.2178 -6.17166,22.06708 -2.41231,37.38545 -4.20095,80.51629 -1.7887,43.13077 -6.46583,87.53977 -1.56229,154.66918 -1.3555,38.11815 2.05879,49.45487 -2.21633,75.18031 -4.75292,30.32049 -7.52973,44.50102 -6.68312,71.05363 0.84661,26.55257 28.0859,15.10711 36.24843,31.02842 6.13191,20.11452 -25.60955,9.30565 -47.55415,4.95708 -21.9446,-4.34855 -23.46538,-9.23564 -26.79171,-31.84713 -3.32633,-22.61149 -4.20717,-44.01661 -6.29121,-65.46966 1.84213,-25.76631 -2.30486,-50.59182 -1.90689,-75.66382 0.18085,-22.54326 -7.9775,17.04042 -12.73836,23.90216 -10.54987,19.65219 -12.39805,42.3289 -12.92272,63.87453 -0.52491,21.54564 -7.45236,39.43062 -7.47163,56.44695 -0.0177,17.01635 0.72197,40.91453 22.73961,53.17642 11.43272,22.11411 -26.35846,18.43484 -46.96423,3.08271 -20.60578,-15.35212 -16.68131,-36.91942 -17.76572,-62.24248 -1.08441,-25.32307 1.89578,-82.07265 8.77561,-122.50223 3.03275,-25.49734 10.67301,-48.48549 8.58756,-76.87201 -1.95668,-22.12979 -2.33815,-43.7868 -0.35171,-64.45764 1.98633,-20.67077 15.391,-49.13973 -21.2827,-54.13041 -15.13101,-8.00757 -22.0878,-25.52563 -15.8916,-41.56942 z"
     id="path3056-5-1"
     inkscape:connector-curvature="0"
     sodipodi:nodetypes="ccczcccczcczczzccczzczzcczccc" />
  <path
     sodipodi:nodetypes="cccccccccc"
     inkscape:connector-curvature="0"
     id="rect5157-1-5-9-2"
     d="m 349.9033,272.35831 c 11.43619,-1.79365 13.29679,-14.04567 19.0873,-24.20614 3.57128,-6.29378 7.71799,-11.6153 9.67357,-17.34019 -7.75412,-3.56641 -14.1927,3.72318 -17.02013,9.8006 1.18296,-14.14966 -2.82539,-27.03224 2.02606,-40.47687 1.66604,-10.77053 -2.91587,-21.10707 -8.42842,-10.02991 -2.33679,5.74022 -2.08738,11.56849 -5.28173,15.98857 -3.33696,4.65105 -2.83736,6.98077 -5.9603,11.51711 1.16739,7.64672 -1.38818,15.50051 -5.92977,23.25271 -3.04152,19.86405 -2.03514,32.51209 11.83342,31.49412 z"
     style="fill:#ff0000;fill-opacity:1;stroke:none"
     inkscape:transform-center-x="-10.040628"
     inkscape:transform-center-y="-32.275946" />
  <path
     style="fill:#808080;fill-opacity:1;stroke:none"
     d="M 126.85462,393.47833 C 121.61066,370.4408 106.24867,350.78968 104.37238,326.69 100.4226,303.92621 94.18823,281.16488 92.85023,258.40396 c -0.92799,-13.60553 16.56201,-25.26623 23.12854,-10.22541 9.94979,11.81336 19.8996,23.62684 29.84947,35.4402 3.37048,20.25966 -0.0587,41.28931 6.74179,61.11798 3.77586,18.43133 15.65397,34.98289 4.09127,52.85553 -6.40194,13.01503 -18.65631,-0.52691 -29.80656,-4.11428 z"
     id="rect3975-1-0-1-7-8"
     inkscape:connector-curvature="0"
     sodipodi:nodetypes="ccccccccc" />
</svg>
